<svg version="1.2" xmlns="http://www.w3.org/2000/svg" viewBox="0 0 128 128" width="128" height="128">
	<g>
		<path id="middle" fill="#86c7c9" d="m59.6 4.5c-0.9 0.8-1.9 2.5-2.2 3.8-0.3 1.2-0.4 3.3-0.1 4.7 0.3 1.4 1.8 3.4 3.4 4.4 2.2 1.5 3.5 1.7 6.3 1 2.6-0.7 3.7-1.6 4.3-3.9 0.5-1.7 0.7-4.2 0.3-5.8-0.3-1.5-1.3-3.4-2.1-4.2-0.8-0.8-3-1.5-4.9-1.5-1.9 0-4.2 0.7-5 1.5zm4.8 27.5c0.3 0.5 0.3 1.1-0.2 1.2-0.4 0.2-1.7 1.8-3 3.5-1.2 1.8-2.2 3.6-2.2 4 0 0.5-0.8 2.4-1.9 4.3-1 1.9-2.6 6.4-3.5 10-1.4 5.5-1.6 11.1-1.4 34.9 0.3 25.6 0.5 28.5 2 29.5 1.4 0.8 2.1 0.8 3.2-0.4 1-1.1 1.7-7.3 2.6-24 0.8-16.8 1.5-22.9 2.6-24 1.2-1.3 1.6-1.3 2.9 0.5 1 1.4 1.4 4.8 1.5 12 0 5.5 0.5 14 1.1 19 0.5 5 1.1 10.7 1.2 12.8 0.1 2.1 0.8 4.3 1.4 4.8 0.9 0.6 1.8 0.4 2.8-0.6 1.2-1.2 1.5-5.3 1.5-23.8 0-12.2-0.2-25.6-0.5-29.7-0.2-4.1-1.2-11.1-2.1-15.5-0.9-4.4-2.9-10.6-4.5-13.8-1.6-3.1-3.2-5.7-3.5-5.7-0.3 0-0.3 0.5 0 1z"/>
		<path id="left" fill="#a1d3a7" d="m36.5 21.4c-4.3 1.2-6.1 2.6-12.8 9.7-4.3 4.6-8.9 10.7-10.3 13.4-1.4 2.8-3.6 6.8-4.9 9-1.3 2.2-3.7 5.1-5.2 6.4-2.3 1.9-2.6 2.6-1.7 4 0.7 1 2.8 1.7 5.5 1.9 4.2 0.4 4.6 0.2 9.7-5.5 2.9-3.2 5.5-6.8 5.7-8 0.3-1.3 1-2.3 1.5-2.3 0.6 0 1 2.4 1 5.3 0 2.8-0.7 9.5-1.5 14.7-0.8 5.2-1.9 12.5-2.5 16.3-0.5 3.7-1.7 9.5-2.6 13-0.9 3.4-1.4 7.4-1 9 0.4 1.7 1.3 2.7 2.4 2.7 0.9 0 2.2-0.4 2.9-0.8 0.7-0.4 3.3-8.8 5.8-18.7 2.5-9.9 4.7-18.7 4.9-19.5 0.2-0.8 0.9-1.7 1.7-1.9 1.2-0.4 1.3 1.6 0.6 12.5-0.4 7.1-1.3 17.2-1.8 22.4-0.8 6.8-0.8 10.1 0 11.8 0.6 1.2 2 2.2 3.1 2.2 1.2 0 2.6-1.2 3.5-3 0.8-1.7 1.5-5.2 1.5-8 0-2.7 0.5-6 1-7.2 0.6-1.3 1.8-8.6 2.8-16.3 1.7-13.2 1.9-14 4-14 1.9 0 2.2-0.5 2.2-4.7 0-2.7 0.7-7.6 1.6-11 0.9-3.5 2.5-7.9 3.5-9.8 1.1-1.9 1.9-3.8 1.9-4.2 0-0.5 1-2.3 2.3-4 1.2-1.8 2.4-3.5 2.7-3.8 0.3-0.3 0.6-1.1 0.5-1.7 0-0.7-1.6-2.3-3.5-3.6-1.9-1.3-6-3.3-9-4.5-3-1.2-6.6-2.3-8-2.6-1.4-0.3-4.7 0.1-7.5 0.8z"/>
		<path id="right" fill="#a9d3ec" d="m73.5 23.4c-2.8 1.3-5.9 3.3-7 4.5l-2 2.2c5.1 10.4 7.2 16.6 7.9 20.4 0.8 3.9 1.8 10.2 2.1 14 0.7 6.6 0.9 7 3.1 6.8 1.5-0.2 2.7 0.4 3.3 1.5 0.5 0.9 1.1 5.5 1.4 10.2 0.3 4.7 1.5 14.6 2.6 22 1.5 10.3 2.5 13.8 3.8 14.7 1 0.7 2.4 1 3 0.7 0.7-0.2 1.6-1.4 1.9-2.6 0.3-1.3 0-9.3-0.7-17.8-0.7-8.5-1.3-18.3-1.4-21.7 0-3.5 0.4-6.4 1-6.5 0.5-0.2 1.9 3.3 3.2 7.7 1.2 4.4 3.4 13 4.9 19 1.5 6.1 3.2 11.6 3.8 12.3 0.6 0.7 2.1 1.3 3.3 1.2 1.9 0 2.3-0.6 2.3-3 0-1.7-0.6-6.3-1.4-10.2-0.8-4-2-10.5-2.6-14.3-0.6-3.8-1.8-12.4-2.6-19-0.7-6.6-1.4-12.3-1.4-12.7 0-0.5 0.5-0.8 1-0.8 0.5 0 2 1.7 3.1 3.8 1.2 2 4 5.4 6.3 7.4 3.4 3.1 4.8 3.8 8.6 3.8 2.5 0.1 5.1-0.5 5.7-1.2 1-1 0.9-1.6-0.5-2.9-0.9-0.9-4.6-6.5-8.2-12.4-3.7-6-9.6-14-13.5-18.1-3.8-4-7.7-7.4-8.5-7.4-0.8 0-3.3-0.9-5.5-2-2.2-1.1-5.8-1.9-8-2-2.2 0-6.3 1.1-9 2.4z"/>
	</g>
</svg>